<?xml version="1.0" encoding="UTF-8" standalone="no"?>
<!DOCTYPE svg PUBLIC "-//W3C//DTD SVG 1.1//EN"
 "http://www.w3.org/Graphics/SVG/1.1/DTD/svg11.dtd">
<!-- Generated by graphviz version 5.0.0 (20220707.1540)
 -->
<!-- Title: UmlClassDiagram Pages: 1 -->
<svg width="533pt" height="593pt"
 viewBox="0.00 0.00 533.10 592.60" xmlns="http://www.w3.org/2000/svg" xmlns:xlink="http://www.w3.org/1999/xlink">
<g id="graph0" class="graph" transform="scale(1 1) rotate(0) translate(4 588.6)">
<title>UmlClassDiagram</title>
<polygon fill="white" stroke="transparent" points="-4,4 -4,-588.6 529.1,-588.6 529.1,4 -4,4"/>
<!-- 1 -->
<g id="node1" class="node">
<title>1</title>
<polygon fill="#f2f2f2" stroke="black" points="27.21,-212.7 27.21,-329.5 210.75,-329.5 210.75,-212.7 27.21,-212.7"/>
<text text-anchor="middle" x="118.98" y="-312.9" font-family="Times,serif" font-size="14.00">&lt;&lt;Struct&gt;&gt;</text>
<text text-anchor="middle" x="118.98" y="-296.1" font-family="Times,serif" font-size="14.00">VoiceIDVerification</text>
<text text-anchor="middle" x="118.98" y="-279.3" font-family="Times,serif" font-size="14.00">contractsIVoiceIDVerifier.sol</text>
<polyline fill="none" stroke="black" points="27.21,-271.1 210.75,-271.1 "/>
<text text-anchor="start" x="35.21" y="-254.5" font-family="Times,serif" font-size="14.00">userHash: string</text>
<text text-anchor="start" x="35.21" y="-237.7" font-family="Times,serif" font-size="14.00">audioHash: string</text>
<text text-anchor="start" x="35.21" y="-220.9" font-family="Times,serif" font-size="14.00">isEnabled: bool</text>
</g>
<!-- 0 -->
<g id="node2" class="node">
<title>0</title>
<polygon fill="#f2f2f2" stroke="black" points="0,-366.5 0,-584.1 477.96,-584.1 477.96,-366.5 0,-366.5"/>
<text text-anchor="middle" x="238.98" y="-567.5" font-family="Times,serif" font-size="14.00">&lt;&lt;Interface&gt;&gt;</text>
<text text-anchor="middle" x="238.98" y="-550.7" font-family="Times,serif" font-size="14.00">IVoiceIDVerifier</text>
<text text-anchor="middle" x="238.98" y="-533.9" font-family="Times,serif" font-size="14.00">contractsIVoiceIDVerifier.sol</text>
<polyline fill="none" stroke="black" points="0,-525.7 477.96,-525.7 "/>
<text text-anchor="start" x="8" y="-509.1" font-family="Times,serif" font-size="14.00">External:</text>
<text text-anchor="start" x="8" y="-492.3" font-family="Times,serif" font-size="14.00"> &#160;&#160;&#160;&#160;registerVoiceIDVerification(_userHash: string, _audioHash: string)</text>
<text text-anchor="start" x="8" y="-475.5" font-family="Times,serif" font-size="14.00"> &#160;&#160;&#160;&#160;disableVoiceIDVerification(_userHash: string)</text>
<text text-anchor="start" x="8" y="-458.7" font-family="Times,serif" font-size="14.00"> &#160;&#160;&#160;&#160;enableVoiceIDVerification(_userHash: string)</text>
<text text-anchor="start" x="8" y="-441.9" font-family="Times,serif" font-size="14.00"> &#160;&#160;&#160;&#160;verifyVoiceID(_userHash: string, _audioHash: string): bool</text>
<text text-anchor="start" x="8" y="-425.1" font-family="Times,serif" font-size="14.00">Public:</text>
<text text-anchor="start" x="8" y="-408.3" font-family="Times,serif" font-size="14.00"> &#160;&#160;&#160;&lt;&lt;event&gt;&gt; VoiceIDVerificationRegistered(audioHash: string, userHash: string)</text>
<text text-anchor="start" x="8" y="-391.5" font-family="Times,serif" font-size="14.00"> &#160;&#160;&#160;&lt;&lt;event&gt;&gt; VoiceIDVerificationEnabled(userHash: string)</text>
<text text-anchor="start" x="8" y="-374.7" font-family="Times,serif" font-size="14.00"> &#160;&#160;&#160;&lt;&lt;event&gt;&gt; VoiceIDVerificationDisabled(userHash: string)</text>
</g>
<!-- 1&#45;&gt;0 -->
<g id="edge1" class="edge">
<title>1&#45;&gt;0</title>
<path fill="none" stroke="black" d="M153.05,-329.5C158.03,-337.9 163.31,-346.8 168.7,-355.89"/>
<polygon fill="black" stroke="black" points="168.71,-355.89 175.21,-359.01 174.83,-366.21 168.33,-363.09 168.71,-355.89"/>
</g>
<!-- 2 -->
<g id="node3" class="node">
<title>2</title>
<polygon fill="#f2f2f2" stroke="black" points="266.86,-221.1 266.86,-321.1 525.1,-321.1 525.1,-221.1 266.86,-221.1"/>
<text text-anchor="middle" x="395.98" y="-304.5" font-family="Times,serif" font-size="14.00">&lt;&lt;Library&gt;&gt;</text>
<text text-anchor="middle" x="395.98" y="-287.7" font-family="Times,serif" font-size="14.00">Utils</text>
<text text-anchor="middle" x="395.98" y="-270.9" font-family="Times,serif" font-size="14.00">contractsUtils.sol</text>
<polyline fill="none" stroke="black" points="266.86,-262.7 525.1,-262.7 "/>
<text text-anchor="start" x="274.86" y="-246.1" font-family="Times,serif" font-size="14.00">External:</text>
<text text-anchor="start" x="274.86" y="-229.3" font-family="Times,serif" font-size="14.00"> &#160;&#160;&#160;compareStrings(a: string, b: string): bool</text>
</g>
<!-- 3 -->
<g id="node4" class="node">
<title>3</title>
<polygon fill="#f2f2f2" stroke="black" points="34.64,-0.5 34.64,-175.7 443.31,-175.7 443.31,-0.5 34.64,-0.5"/>
<text text-anchor="middle" x="238.98" y="-159.1" font-family="Times,serif" font-size="14.00">VoiceIDVerifier</text>
<text text-anchor="middle" x="238.98" y="-142.3" font-family="Times,serif" font-size="14.00">contractsVoiceIDVerifier.sol</text>
<polyline fill="none" stroke="black" points="34.64,-134.1 443.31,-134.1 "/>
<text text-anchor="start" x="42.64" y="-117.5" font-family="Times,serif" font-size="14.00">Public:</text>
<text text-anchor="start" x="42.64" y="-100.7" font-family="Times,serif" font-size="14.00"> &#160;&#160;voiceIDVerifications: mapping(string=&gt;VoiceIDVerification)</text>
<polyline fill="none" stroke="black" points="34.64,-92.5 443.31,-92.5 "/>
<text text-anchor="start" x="42.64" y="-75.9" font-family="Times,serif" font-size="14.00">External:</text>
<text text-anchor="start" x="42.64" y="-59.1" font-family="Times,serif" font-size="14.00"> &#160;&#160;&#160;registerVoiceIDVerification(_userHash: string, _audioHash: string)</text>
<text text-anchor="start" x="42.64" y="-42.3" font-family="Times,serif" font-size="14.00"> &#160;&#160;&#160;disableVoiceIDVerification(_userHash: string)</text>
<text text-anchor="start" x="42.64" y="-25.5" font-family="Times,serif" font-size="14.00"> &#160;&#160;&#160;enableVoiceIDVerification(_userHash: string)</text>
<text text-anchor="start" x="42.64" y="-8.7" font-family="Times,serif" font-size="14.00"> &#160;&#160;&#160;verifyVoiceID(_userHash: string, _audioHash: string): bool</text>
</g>
<!-- 3&#45;&gt;1 -->
<g id="edge4" class="edge">
<title>3&#45;&gt;1</title>
<path fill="none" stroke="black" d="M181.44,-175.89C175.13,-185.41 168.78,-194.98 162.68,-204.18"/>
<polygon fill="black" stroke="black" points="159.76,-202.25 157.16,-212.52 165.6,-206.12 159.76,-202.25"/>
</g>
<!-- 3&#45;&gt;0 -->
<g id="edge2" class="edge">
<title>3&#45;&gt;0</title>
<path fill="none" stroke="black" stroke-dasharray="5,2" d="M238.98,-176.03C238.98,-223.25 238.98,-282.75 238.98,-336.17"/>
<polygon fill="none" stroke="black" points="228.48,-336.35 238.98,-366.35 249.48,-336.35 228.48,-336.35"/>
</g>
<!-- 3&#45;&gt;2 -->
<g id="edge3" class="edge">
<title>3&#45;&gt;2</title>
<path fill="none" stroke="black" stroke-dasharray="5,2" d="M314.26,-175.89C325.24,-188.54 336.29,-201.29 346.58,-213.15"/>
<polygon fill="black" stroke="black" points="344.02,-215.54 353.21,-220.8 349.3,-210.95 344.02,-215.54"/>
</g>
</g>
</svg>
